<svg width="138" height="119" viewBox="0 0 138 119" fill="none" xmlns="http://www.w3.org/2000/svg">
<path d="M137.563 5C137.563 2.23858 135.325 0 132.563 0H30.4306C29.6604 0 28.9006 0.177942 28.2105 0.519946L9.04047 10.0199C5.33401 11.8567 5.33401 17.1433 9.04047 18.9801L28.2105 28.4801C28.9006 28.8221 29.6604 29 30.4306 29H132.563C135.325 29 137.563 26.7614 137.563 24V5Z" fill="#F39405"/>
<path d="M137.563 50C137.563 47.2386 135.325 45 132.563 45H30.4306C29.6604 45 28.9006 45.1779 28.2105 45.5199L9.04047 55.0199C5.33401 56.8567 5.33401 62.1433 9.04047 63.9801L28.2105 73.4801C28.9006 73.8221 29.6604 74 30.4306 74H132.563C135.325 74 137.563 71.7614 137.563 69V50Z" fill="#F39405"/>
<path d="M137.563 95C137.563 92.2386 135.325 90 132.563 90H30.4306C29.6604 90 28.9006 90.1779 28.2105 90.5199L9.04047 100.02C5.33401 101.857 5.33401 107.143 9.04047 108.98L28.2105 118.48C28.9006 118.822 29.6604 119 30.4306 119H132.563C135.325 119 137.563 116.761 137.563 114V95Z" fill="#F39405"/>
</svg>
