<svg width="21" height="24" viewBox="0 0 21 24" fill="none" xmlns="http://www.w3.org/2000/svg">
<path d="M17.5014 12C17.5014 8.67188 15.7213 5.82188 13.1947 4.61719L12.5221 6.46406C14.417 7.36875 15.75 9.50625 15.75 12C15.75 14.4984 14.417 16.6313 12.518 17.5359L13.1906 19.3828C15.7213 18.1781 17.5014 15.3281 17.5014 12ZM13.9986 12C13.9986 10.3359 13.1086 8.91094 11.8453 8.31094L11.1727 10.1578C11.8043 10.4578 12.2473 11.1703 12.2473 12.0047C12.2473 12.8344 11.8043 13.5469 11.1727 13.8516L11.8453 15.6984C13.1086 15.0891 13.9986 13.6641 13.9986 12ZM14.54 0.923438L13.8633 2.77031C17.0256 4.275 19.2486 7.8375 19.2486 12C19.2486 16.1578 17.0256 19.725 13.8633 21.2297L14.5359 23.0766C18.334 21.2672 21 16.9922 21 12C21 7.00781 18.334 2.73281 14.54 0.923438ZM0 6.99844V16.9969H3.49863L9.62637 24V0L3.49863 6.99844H0Z" fill="#FF9B04"/>
</svg>
