<svg width="16" height="17" viewBox="0 0 16 17" fill="none" xmlns="http://www.w3.org/2000/svg">
<path d="M7.70109 0.416626C8.99147 0.416626 10.0449 0.432102 10.8615 0.463053C11.5571 0.494004 12.1771 0.617809 12.7215 0.834468C13.2457 1.04081 13.6993 1.34001 14.0824 1.73206C14.4655 2.12411 14.7579 2.58838 14.9595 3.12486C15.1712 3.68199 15.2922 4.31649 15.3224 5.02837C15.3526 5.86405 15.3678 6.94219 15.3678 8.26278C15.3678 9.58337 15.3526 10.6615 15.3224 11.4972C15.2922 12.2091 15.1712 12.8436 14.9595 13.4007C14.7579 13.9372 14.4655 14.4015 14.0824 14.7935C13.6993 15.1856 13.2457 15.4847 12.7215 15.6911C12.1771 15.9078 11.5571 16.0316 10.8615 16.0625C10.0449 16.0935 8.99147 16.1089 7.70109 16.1089C6.41071 16.1089 5.35724 16.0935 4.54067 16.0625C3.84508 16.0316 3.22509 15.9078 2.68071 15.6911C2.15649 15.4847 1.70284 15.1856 1.31976 14.7935C0.936681 14.4015 0.64433 13.9372 0.442708 13.4007C0.231005 12.8436 0.110032 12.2091 0.0797887 11.4972C0.0495455 10.6615 0.0344238 9.58337 0.0344238 8.26278C0.0344238 6.94219 0.0495455 5.86405 0.0797887 5.02837C0.110032 4.31649 0.231005 3.68199 0.442708 3.12486C0.64433 2.58838 0.936681 2.12411 1.31976 1.73206C1.70284 1.34001 2.15649 1.04081 2.68071 0.834468C3.22509 0.617809 3.84508 0.494004 4.54067 0.463053C5.35724 0.432102 6.41071 0.416626 7.70109 0.416626ZM7.70109 1.43802C6.36031 1.43802 5.26651 1.45349 4.4197 1.48445C3.87532 1.50508 3.37126 1.60309 2.90753 1.77848C2.1817 2.088 1.66756 2.61417 1.36513 3.357C1.19375 3.83159 1.09798 4.34744 1.07782 4.90456C1.04757 5.7712 1.03245 6.89061 1.03245 8.26278C1.03245 9.63495 1.04757 10.7544 1.07782 11.621C1.09798 12.1781 1.19375 12.694 1.36513 13.1686C1.66756 13.9114 2.1817 14.4376 2.90753 14.7471C3.37126 14.9225 3.87532 15.0205 4.4197 15.0411C5.26651 15.0721 6.36031 15.0875 7.70109 15.0875C9.04188 15.0875 10.1357 15.0721 10.9825 15.0411C11.5269 15.0205 12.0309 14.9225 12.4947 14.7471C13.2205 14.4376 13.7346 13.9114 14.0371 13.1686C14.2084 12.694 14.3042 12.1781 14.3244 11.621C14.3546 10.7544 14.3697 9.63495 14.3697 8.26278C14.3697 6.89061 14.3546 5.7712 14.3244 4.90456C14.3042 4.34744 14.2084 3.83159 14.0371 3.357C13.7346 2.61417 13.2205 2.088 12.4947 1.77848C12.0309 1.60309 11.5269 1.50508 10.9825 1.48445C10.1357 1.45349 9.04188 1.43802 7.70109 1.43802ZM7.70109 11.4043C8.5479 11.4043 9.27122 11.0974 9.87105 10.4835C10.4709 9.86967 10.7708 9.12942 10.7708 8.26278C10.7708 7.39614 10.4709 6.65589 9.87105 6.04202C9.27122 5.42816 8.5479 5.12122 7.70109 5.12122C6.85428 5.12122 6.13096 5.42816 5.53114 6.04202C4.93131 6.65589 4.6314 7.39614 4.6314 8.26278C4.6314 9.12942 4.93131 9.86967 5.53114 10.4835C6.13096 11.0974 6.85428 11.4043 7.70109 11.4043ZM7.70109 4.23911C8.78985 4.23911 9.71731 4.63116 10.4835 5.41526C11.2496 6.19936 11.6327 7.14853 11.6327 8.26278C11.6327 9.37703 11.2496 10.3262 10.4835 11.1103C9.71731 11.8944 8.78985 12.2864 7.70109 12.2864C6.61234 12.2864 5.68488 11.8944 4.91871 11.1103C4.15255 10.3262 3.76947 9.37703 3.76947 8.26278C3.76947 7.14853 4.15255 6.19936 4.91871 5.41526C5.68488 4.63116 6.61234 4.23911 7.70109 4.23911ZM12.7215 4.08435C12.7215 4.34228 12.6307 4.56152 12.4493 4.74207C12.2678 4.92262 12.046 5.01289 11.7839 5.01289C11.5319 5.01289 11.3177 4.92262 11.1413 4.74207C10.9648 4.56152 10.8766 4.34228 10.8766 4.08435C10.8766 3.81611 10.9648 3.58913 11.1413 3.40343C11.3177 3.21772 11.5319 3.12486 11.7839 3.12486C12.036 3.12486 12.2552 3.2203 12.4417 3.41116C12.6282 3.60203 12.7215 3.82643 12.7215 4.08435Z" fill="#FAED25"/>
</svg>
