<svg width="13" height="14" viewBox="0 0 13 14" fill="none" xmlns="http://www.w3.org/2000/svg">
<path d="M12.4888 0.307739H0.733279C0.450571 0.307739 0.222168 0.541489 0.222168 0.830816V12.8616C0.222168 13.1509 0.450571 13.3847 0.733279 13.3847H12.4888C12.7715 13.3847 13 13.1509 13 12.8616V0.830816C13 0.541489 12.7715 0.307739 12.4888 0.307739ZM11.9777 12.3385H9.03724V8.32062H10.6984L10.9475 6.34764H9.03724V5.08736C9.03724 4.51524 9.19217 4.1262 9.99238 4.1262H11.013V2.36082C10.8357 2.3363 10.2304 2.28235 9.52439 2.28235C8.05175 2.28235 7.04391 3.20264 7.04391 4.8912V6.34601H5.3796V8.31899H7.0455V12.3385H1.24439V1.35389H11.9777V12.3385Z" fill="#FAED25"/>
</svg>
