<svg width="18" height="18" viewBox="0 0 18 18" fill="none" xmlns="http://www.w3.org/2000/svg">
<path d="M9.19499 0.416626C4.36025 0.416626 0.436401 4.22463 0.436401 8.91663C0.436401 13.6086 4.36025 17.4166 9.19499 17.4166H13.5743V15.7166H9.19499C5.39376 15.7166 2.18812 12.6056 2.18812 8.91663C2.18812 5.22763 5.39376 2.11663 9.19499 2.11663C12.9962 2.11663 16.2019 5.22763 16.2019 8.91663V10.1321C16.2019 10.8036 15.58 11.4666 14.8881 11.4666C14.1961 11.4666 13.5743 10.8036 13.5743 10.1321V8.91663C13.5743 6.57063 11.6124 4.66663 9.19499 4.66663C6.77762 4.66663 4.81569 6.57063 4.81569 8.91663C4.81569 11.2626 6.77762 13.1666 9.19499 13.1666C10.4037 13.1666 11.5073 12.6906 12.2955 11.9171C12.8648 12.6736 13.8458 13.1666 14.8881 13.1666C16.6135 13.1666 17.9536 11.8066 17.9536 10.1321V8.91663C17.9536 4.22463 14.0297 0.416626 9.19499 0.416626ZM9.19499 11.4666C7.74106 11.4666 6.56741 10.3276 6.56741 8.91663C6.56741 7.50563 7.74106 6.36663 9.19499 6.36663C10.6489 6.36663 11.8226 7.50563 11.8226 8.91663C11.8226 10.3276 10.6489 11.4666 9.19499 11.4666Z" fill="#FAED25"/>
</svg>
