<svg width="21" height="24" viewBox="0 0 21 24" fill="none" xmlns="http://www.w3.org/2000/svg">
<path d="M21 12.0002C21 11.6703 20.8155 11.3867 20.5459 11.2379L1.37097 0.157359C1.22513 0.0550255 1.05136 8.69675e-05 0.873249 0C0.641716 -2.30108e-08 0.419661 0.092033 0.255906 0.255864C0.0921516 0.419695 0.000103178 0.641912 0 0.873655C0 0.907542 0.00622675 0.939481 0.0101182 0.972199H0V23.2249H0.0101182C0.0335685 23.4377 0.134563 23.6344 0.293794 23.7774C0.453025 23.9204 0.659323 23.9997 0.873249 24C1.0262 23.9992 1.1762 23.9578 1.30793 23.88L1.31571 23.8937L20.5692 12.7675L20.5614 12.7539C20.6944 12.678 20.8049 12.5684 20.8819 12.436C20.9589 12.3037 20.9997 12.1533 21 12.0002Z" fill="#FF9B04"/>
</svg>
